<svg xmlns="http://www.w3.org/2000/svg" version="1.1" xmlns:xlink="http://www.w3.org/1999/xlink" xmlns:svgjs="http://svgjs.dev/svgjs" width="1000" height="623" viewBox="0 0 1000 623"><g transform="matrix(1,0,0,1,-0.6060606060606233,0.2522267206477409)"><svg viewBox="0 0 396 247" data-background-color="#ffffff" preserveAspectRatio="xMidYMid meet" height="623" width="1000" xmlns="http://www.w3.org/2000/svg" xmlns:xlink="http://www.w3.org/1999/xlink"><g id="tight-bounds" transform="matrix(1,0,0,1,0.2400000000000091,-0.09999999999999432)"><svg viewBox="0 0 395.52 247.2" height="247.2" width="395.52"><g><svg></svg></g><g><svg viewBox="0 0 395.52 247.2" height="247.2" width="395.52"><g transform="matrix(1,0,0,1,80.30980372670805,47.215199999999996)"><svg viewBox="0 0 234.90039254658387 152.7696" height="152.7696" width="234.90039254658387"><g><svg viewBox="0 0 234.90039254658387 152.7696" height="152.7696" width="234.90039254658387"><g><svg viewBox="0 0 234.90039254658387 152.7696" height="152.7696" width="234.90039254658387"><g><svg viewBox="0 0 234.90039254658387 152.7696" height="152.7696" width="234.90039254658387"><g id="textblocktransform"><svg viewBox="0 0 234.90039254658387 152.7696" height="152.7696" width="234.90039254658387" id="textblock"><g><svg viewBox="0 0 234.90039254658387 152.7696" height="152.7696" width="234.90039254658387"><g transform="matrix(1,0,0,1,0,0)"><svg width="234.90039254658387" viewBox="4.349999904632568 -35.83000183105469 55.70000076293945 36.230003356933594" height="152.7696" data-palette-color="#6a6363"><path d="M6.85-35.83L6.85-35.83Q7.5-35.83 7.81-35.66 8.13-35.5 8.53-35L8.53-35 29.28-8Q29.2-8.65 29.18-9.26 29.15-9.88 29.15-10.45L29.15-10.45 29.15-35.83 33.4-35.83 33.4 0 30.95 0Q30.38 0 29.99-0.2 29.6-0.4 29.23-0.88L29.23-0.88 8.5-27.85Q8.55-27.23 8.58-26.63 8.6-26.03 8.6-25.53L8.6-25.53 8.6 0 4.35 0 4.35-35.83 6.85-35.83ZM60.05-16.2L60.05 0 58.07 0Q57.42 0 57.02-0.2 56.62-0.4 56.5-1.05L56.5-1.05 56-3.4Q55-2.5 54.05-1.79 53.1-1.07 52.05-0.59 51-0.1 49.81 0.15 48.62 0.4 47.17 0.4L47.17 0.4Q45.7 0.4 44.41-0.01 43.12-0.43 42.17-1.25 41.22-2.08 40.66-3.34 40.1-4.6 40.1-6.33L40.1-6.33Q40.1-7.83 40.92-9.21 41.75-10.6 43.59-11.68 45.42-12.75 48.4-13.44 51.37-14.13 55.67-14.23L55.67-14.23 55.67-16.2Q55.67-19.15 54.41-20.66 53.15-22.18 50.67-22.18L50.67-22.18Q49.05-22.18 47.94-21.76 46.82-21.35 46.01-20.84 45.2-20.33 44.61-19.91 44.02-19.5 43.45-19.5L43.45-19.5Q43-19.5 42.66-19.74 42.32-19.98 42.12-20.33L42.12-20.33 41.32-21.75Q43.42-23.78 45.85-24.78 48.27-25.78 51.22-25.78L51.22-25.78Q53.35-25.78 55-25.08 56.65-24.38 57.77-23.13 58.9-21.88 59.47-20.1 60.05-18.32 60.05-16.2L60.05-16.2ZM48.5-2.73L48.5-2.73Q49.67-2.73 50.65-2.96 51.62-3.2 52.49-3.64 53.35-4.08 54.14-4.7 54.92-5.33 55.67-6.13L55.67-6.13 55.67-11.4Q52.6-11.3 50.45-10.91 48.3-10.53 46.95-9.9 45.6-9.28 44.99-8.43 44.37-7.58 44.37-6.53L44.37-6.53Q44.37-5.53 44.7-4.8 45.02-4.08 45.57-3.61 46.12-3.15 46.87-2.94 47.62-2.73 48.5-2.73Z" opacity="1" transform="matrix(1,0,0,1,0,0)" fill="#6a6363" class="undefined-text-0" data-fill-palette-color="primary" id="text-0"></path></svg></g></svg></g></svg></g></svg></g></svg></g></svg></g></svg></g><path d="M262.611 41.215L262.611 0 15.411 0 15.411 247.2 262.611 247.2 262.611 205.985 248.834 205.985 248.834 233.423 29.188 233.423 29.188 13.777 248.834 13.777 248.834 41.215Z" fill="#6a6363" stroke="transparent" data-fill-palette-color="primary"></path></svg></g><defs></defs></svg><rect width="395.52" height="247.2" fill="none" stroke="none" visibility="hidden"></rect></g></svg></g></svg>